<mxfile host="www.draw.io" modified="2020-03-08T04:54:04.711Z" agent="Mozilla/5.0 (Windows NT 10.0; Win64; x64) AppleWebKit/537.36 (KHTML, like Gecko) Chrome/80.0.3987.132 Safari/537.36" etag="5_3-CK_Hvbl_ihvX8VHD" version="12.8.1" type="github">
  <diagram id="_MeufivQ26MiJXYKcV9G" name="Page-1">
    <mxGraphModel dx="1019" dy="519" grid="1" gridSize="10" guides="1" tooltips="1" connect="1" arrows="1" fold="1" page="1" pageScale="1" pageWidth="827" pageHeight="1169" math="0" shadow="0">
      <root>
        <mxCell id="0" />
        <mxCell id="1" parent="0" />
        <mxCell id="vhjrgtWLvvNyjYg3xXW3-5" value="" style="edgeStyle=orthogonalEdgeStyle;rounded=0;orthogonalLoop=1;jettySize=auto;html=1;endArrow=blockThin;endFill=1;fontFamily=Times New Roman;fontSize=29;" parent="1" source="vhjrgtWLvvNyjYg3xXW3-1" edge="1">
          <mxGeometry relative="1" as="geometry">
            <mxPoint x="330" y="600" as="targetPoint" />
          </mxGeometry>
        </mxCell>
        <mxCell id="vhjrgtWLvvNyjYg3xXW3-1" value="" style="ellipse;whiteSpace=wrap;html=1;aspect=fixed;fontFamily=Times New Roman;fontSize=29;" parent="1" vertex="1">
          <mxGeometry x="300" y="680" width="60" height="60" as="geometry" />
        </mxCell>
        <mxCell id="vhjrgtWLvvNyjYg3xXW3-6" value="" style="endArrow=blockThin;html=1;entryX=0.5;entryY=1;entryDx=0;entryDy=0;endFill=1;fontFamily=Times New Roman;fontSize=29;" parent="1" target="vhjrgtWLvvNyjYg3xXW3-1" edge="1">
          <mxGeometry width="50" height="50" relative="1" as="geometry">
            <mxPoint x="330" y="830" as="sourcePoint" />
            <mxPoint x="310" y="770" as="targetPoint" />
          </mxGeometry>
        </mxCell>
        <mxCell id="vhjrgtWLvvNyjYg3xXW3-7" value="" style="verticalLabelPosition=bottom;verticalAlign=top;html=1;shape=mxgraph.basic.arc;startAngle=0.34277357907774236;endAngle=0.12383830571806365;rotation=-180;gradientColor=none;allowArrows=1;fontFamily=Times New Roman;fontSize=29;" parent="1" vertex="1">
          <mxGeometry x="356" y="680" width="36" height="60" as="geometry" />
        </mxCell>
        <mxCell id="vhjrgtWLvvNyjYg3xXW3-8" value="" style="endArrow=blockThin;html=1;endFill=1;fontFamily=Times New Roman;fontSize=29;" parent="1" edge="1">
          <mxGeometry width="50" height="50" relative="1" as="geometry">
            <mxPoint x="364" y="735" as="sourcePoint" />
            <mxPoint x="359" y="725" as="targetPoint" />
          </mxGeometry>
        </mxCell>
        <mxCell id="vhjrgtWLvvNyjYg3xXW3-10" value="" style="edgeStyle=orthogonalEdgeStyle;rounded=0;orthogonalLoop=1;jettySize=auto;html=1;endArrow=blockThin;endFill=1;fontFamily=Times New Roman;fontSize=29;" parent="1" source="vhjrgtWLvvNyjYg3xXW3-11" edge="1">
          <mxGeometry relative="1" as="geometry">
            <mxPoint x="500" y="600" as="targetPoint" />
          </mxGeometry>
        </mxCell>
        <mxCell id="vhjrgtWLvvNyjYg3xXW3-16" value="" style="edgeStyle=orthogonalEdgeStyle;rounded=0;orthogonalLoop=1;jettySize=auto;html=1;endArrow=blockThin;endFill=1;fontFamily=Times New Roman;fontSize=29;" parent="1" source="vhjrgtWLvvNyjYg3xXW3-11" target="vhjrgtWLvvNyjYg3xXW3-14" edge="1">
          <mxGeometry relative="1" as="geometry" />
        </mxCell>
        <mxCell id="vhjrgtWLvvNyjYg3xXW3-11" value="" style="ellipse;whiteSpace=wrap;html=1;aspect=fixed;fontFamily=Times New Roman;fontSize=29;" parent="1" vertex="1">
          <mxGeometry x="470" y="680" width="60" height="60" as="geometry" />
        </mxCell>
        <mxCell id="vhjrgtWLvvNyjYg3xXW3-12" value="" style="endArrow=blockThin;html=1;entryX=0.5;entryY=1;entryDx=0;entryDy=0;endFill=1;fontFamily=Times New Roman;fontSize=29;" parent="1" target="vhjrgtWLvvNyjYg3xXW3-11" edge="1">
          <mxGeometry width="50" height="50" relative="1" as="geometry">
            <mxPoint x="500" y="830" as="sourcePoint" />
            <mxPoint x="480" y="770" as="targetPoint" />
          </mxGeometry>
        </mxCell>
        <mxCell id="vhjrgtWLvvNyjYg3xXW3-13" value="" style="edgeStyle=orthogonalEdgeStyle;rounded=0;orthogonalLoop=1;jettySize=auto;html=1;endArrow=blockThin;endFill=1;fontFamily=Times New Roman;fontSize=29;" parent="1" source="vhjrgtWLvvNyjYg3xXW3-14" edge="1">
          <mxGeometry relative="1" as="geometry">
            <mxPoint x="594" y="600" as="targetPoint" />
          </mxGeometry>
        </mxCell>
        <mxCell id="vhjrgtWLvvNyjYg3xXW3-22" value="" style="edgeStyle=orthogonalEdgeStyle;rounded=0;orthogonalLoop=1;jettySize=auto;html=1;endArrow=blockThin;endFill=1;fontFamily=Times New Roman;fontSize=29;" parent="1" source="vhjrgtWLvvNyjYg3xXW3-14" target="vhjrgtWLvvNyjYg3xXW3-20" edge="1">
          <mxGeometry relative="1" as="geometry" />
        </mxCell>
        <mxCell id="vhjrgtWLvvNyjYg3xXW3-14" value="" style="ellipse;whiteSpace=wrap;html=1;aspect=fixed;fontFamily=Times New Roman;fontSize=29;" parent="1" vertex="1">
          <mxGeometry x="564" y="680" width="60" height="60" as="geometry" />
        </mxCell>
        <mxCell id="vhjrgtWLvvNyjYg3xXW3-15" value="" style="endArrow=blockThin;html=1;entryX=0.5;entryY=1;entryDx=0;entryDy=0;endFill=1;fontFamily=Times New Roman;fontSize=29;" parent="1" target="vhjrgtWLvvNyjYg3xXW3-14" edge="1">
          <mxGeometry width="50" height="50" relative="1" as="geometry">
            <mxPoint x="594" y="830" as="sourcePoint" />
            <mxPoint x="574" y="770" as="targetPoint" />
          </mxGeometry>
        </mxCell>
        <mxCell id="vhjrgtWLvvNyjYg3xXW3-19" value="" style="edgeStyle=orthogonalEdgeStyle;rounded=0;orthogonalLoop=1;jettySize=auto;html=1;endArrow=blockThin;endFill=1;fontFamily=Times New Roman;fontSize=29;" parent="1" source="vhjrgtWLvvNyjYg3xXW3-20" edge="1">
          <mxGeometry relative="1" as="geometry">
            <mxPoint x="690" y="600" as="targetPoint" />
          </mxGeometry>
        </mxCell>
        <mxCell id="vhjrgtWLvvNyjYg3xXW3-20" value="" style="ellipse;whiteSpace=wrap;html=1;aspect=fixed;fontFamily=Times New Roman;fontSize=29;" parent="1" vertex="1">
          <mxGeometry x="660" y="680" width="60" height="60" as="geometry" />
        </mxCell>
        <mxCell id="vhjrgtWLvvNyjYg3xXW3-21" value="" style="endArrow=blockThin;html=1;entryX=0.5;entryY=1;entryDx=0;entryDy=0;endFill=1;fontFamily=Times New Roman;fontSize=29;" parent="1" target="vhjrgtWLvvNyjYg3xXW3-20" edge="1">
          <mxGeometry width="50" height="50" relative="1" as="geometry">
            <mxPoint x="690" y="830" as="sourcePoint" />
            <mxPoint x="670" y="770" as="targetPoint" />
          </mxGeometry>
        </mxCell>
        <mxCell id="vhjrgtWLvvNyjYg3xXW3-23" value="" style="edgeStyle=orthogonalEdgeStyle;rounded=0;orthogonalLoop=1;jettySize=auto;html=1;endArrow=blockThin;endFill=1;fontFamily=Times New Roman;fontSize=29;" parent="1" edge="1">
          <mxGeometry relative="1" as="geometry">
            <mxPoint x="720" y="710" as="sourcePoint" />
            <mxPoint x="756" y="710" as="targetPoint" />
          </mxGeometry>
        </mxCell>
        <mxCell id="vhjrgtWLvvNyjYg3xXW3-24" value="" style="edgeStyle=orthogonalEdgeStyle;rounded=0;orthogonalLoop=1;jettySize=auto;html=1;endArrow=blockThin;endFill=1;fontFamily=Times New Roman;fontSize=29;" parent="1" edge="1">
          <mxGeometry relative="1" as="geometry">
            <mxPoint x="436" y="709" as="sourcePoint" />
            <mxPoint x="470" y="709" as="targetPoint" />
          </mxGeometry>
        </mxCell>
        <mxCell id="vhjrgtWLvvNyjYg3xXW3-25" value="t" style="text;html=1;strokeColor=none;fillColor=none;align=center;verticalAlign=middle;whiteSpace=wrap;rounded=0;fontFamily=Times New Roman;fontSize=29;" parent="1" vertex="1">
          <mxGeometry x="550" y="810" width="40" height="20" as="geometry" />
        </mxCell>
        <mxCell id="vhjrgtWLvvNyjYg3xXW3-26" value="t+1" style="text;html=1;strokeColor=none;fillColor=none;align=center;verticalAlign=middle;whiteSpace=wrap;rounded=0;fontFamily=Times New Roman;fontSize=29;" parent="1" vertex="1">
          <mxGeometry x="650" y="810" width="40" height="20" as="geometry" />
        </mxCell>
        <mxCell id="vhjrgtWLvvNyjYg3xXW3-27" value="t-1" style="text;html=1;strokeColor=none;fillColor=none;align=center;verticalAlign=middle;whiteSpace=wrap;rounded=0;fontFamily=Times New Roman;fontSize=29;" parent="1" vertex="1">
          <mxGeometry x="450" y="810" width="40" height="20" as="geometry" />
        </mxCell>
        <mxCell id="vhjrgtWLvvNyjYg3xXW3-28" value="输入" style="text;html=1;strokeColor=none;fillColor=none;align=center;verticalAlign=middle;whiteSpace=wrap;rounded=0;fontFamily=Times New Roman;fontSize=29;" parent="1" vertex="1">
          <mxGeometry x="240" y="820" width="50" height="20" as="geometry" />
        </mxCell>
        <mxCell id="vhjrgtWLvvNyjYg3xXW3-29" value="输出" style="text;html=1;strokeColor=none;fillColor=none;align=center;verticalAlign=middle;whiteSpace=wrap;rounded=0;fontFamily=Times New Roman;fontSize=29;" parent="1" vertex="1">
          <mxGeometry x="240" y="610" width="50" height="20" as="geometry" />
        </mxCell>
        <mxCell id="vhjrgtWLvvNyjYg3xXW3-30" value="" style="shape=flexArrow;endArrow=classic;html=1;fontFamily=Times New Roman;fontSize=29;" parent="1" edge="1">
          <mxGeometry width="50" height="50" relative="1" as="geometry">
            <mxPoint x="392" y="739.17" as="sourcePoint" />
            <mxPoint x="442" y="739.17" as="targetPoint" />
          </mxGeometry>
        </mxCell>
        <mxCell id="vhjrgtWLvvNyjYg3xXW3-31" value="展开" style="text;html=1;strokeColor=none;fillColor=none;align=center;verticalAlign=middle;whiteSpace=wrap;rounded=0;fontFamily=Times New Roman;fontSize=29;" parent="1" vertex="1">
          <mxGeometry x="380" y="770" width="52" height="20" as="geometry" />
        </mxCell>
        <mxCell id="at8BYEfqDJsYCzzR29zU-4" value="" style="edgeStyle=elbowEdgeStyle;elbow=vertical;endArrow=blockThin;html=1;endFill=1;fontFamily=Times New Roman;fontSize=29;" edge="1" parent="1">
          <mxGeometry width="50" height="50" relative="1" as="geometry">
            <mxPoint x="232" y="354" as="sourcePoint" />
            <mxPoint x="390" y="248" as="targetPoint" />
          </mxGeometry>
        </mxCell>
        <mxCell id="at8BYEfqDJsYCzzR29zU-6" value="" style="edgeStyle=elbowEdgeStyle;elbow=horizontal;endArrow=none;html=1;shadow=0;endFill=0;fontFamily=Times New Roman;fontSize=29;" edge="1" parent="1">
          <mxGeometry width="50" height="50" relative="1" as="geometry">
            <mxPoint x="180" y="171" as="sourcePoint" />
            <mxPoint x="320" y="301" as="targetPoint" />
          </mxGeometry>
        </mxCell>
        <mxCell id="at8BYEfqDJsYCzzR29zU-9" value="&lt;font style=&quot;font-size: 29px;&quot;&gt;tanh&lt;/font&gt;" style="rounded=1;whiteSpace=wrap;html=1;fillColor=none;fontFamily=Times New Roman;fontSize=29;" vertex="1" parent="1">
          <mxGeometry x="355" y="210" width="70" height="40" as="geometry" />
        </mxCell>
        <mxCell id="at8BYEfqDJsYCzzR29zU-10" value="" style="edgeStyle=elbowEdgeStyle;elbow=vertical;endArrow=blockThin;html=1;shadow=0;endFill=1;fontFamily=Times New Roman;fontSize=29;" edge="1" parent="1">
          <mxGeometry width="50" height="50" relative="1" as="geometry">
            <mxPoint x="827" y="235" as="sourcePoint" />
            <mxPoint x="957" y="135" as="targetPoint" />
            <Array as="points">
              <mxPoint x="887" y="195" />
            </Array>
          </mxGeometry>
        </mxCell>
        <mxCell id="at8BYEfqDJsYCzzR29zU-13" value="" style="endArrow=blockThin;html=1;shadow=0;endFill=1;fontFamily=Times New Roman;fontSize=29;" edge="1" parent="1">
          <mxGeometry width="50" height="50" relative="1" as="geometry">
            <mxPoint x="388" y="210" as="sourcePoint" />
            <mxPoint x="560" y="170" as="targetPoint" />
            <Array as="points">
              <mxPoint x="388" y="170" />
              <mxPoint x="508" y="170" />
            </Array>
          </mxGeometry>
        </mxCell>
        <mxCell id="at8BYEfqDJsYCzzR29zU-14" value="" style="rounded=1;whiteSpace=wrap;html=1;fillColor=none;fontFamily=Times New Roman;fontSize=29;" vertex="1" parent="1">
          <mxGeometry x="222" y="135" width="310" height="190" as="geometry" />
        </mxCell>
        <mxCell id="at8BYEfqDJsYCzzR29zU-15" value="x&lt;sub&gt;t&lt;/sub&gt;" style="text;html=1;strokeColor=none;fillColor=none;align=center;verticalAlign=middle;whiteSpace=wrap;rounded=0;fontFamily=Times New Roman;fontSize=29;" vertex="1" parent="1">
          <mxGeometry x="190" y="330" width="40" height="20" as="geometry" />
        </mxCell>
        <mxCell id="at8BYEfqDJsYCzzR29zU-16" value="h&lt;sub&gt;t-1&lt;/sub&gt;" style="text;html=1;strokeColor=none;fillColor=none;align=center;verticalAlign=middle;whiteSpace=wrap;rounded=0;fontFamily=Times New Roman;fontSize=29;" vertex="1" parent="1">
          <mxGeometry x="150" y="110" width="60" height="55" as="geometry" />
        </mxCell>
        <mxCell id="at8BYEfqDJsYCzzR29zU-17" value="h&lt;sub&gt;t&lt;/sub&gt;" style="text;html=1;strokeColor=none;fillColor=none;align=center;verticalAlign=middle;whiteSpace=wrap;rounded=0;fontFamily=Times New Roman;fontSize=29;" vertex="1" parent="1">
          <mxGeometry x="550" y="135" width="40" height="20" as="geometry" />
        </mxCell>
      </root>
    </mxGraphModel>
  </diagram>
</mxfile>
